<?xml version="1.0" standalone="no"?>
<!DOCTYPE svg PUBLIC "-//W3C//DTD SVG 20010904//EN"
 "http://www.w3.org/TR/2001/REC-SVG-20010904/DTD/svg10.dtd">
<svg version="1.0" xmlns="http://www.w3.org/2000/svg"
 width="700.000000pt" height="700.000000pt" viewBox="0 0 700.000000 700.000000"
 preserveAspectRatio="xMidYMid meet">
<metadata>
Created by potrace 1.14, written by Peter Selinger 2001-2017
</metadata>
<g transform="translate(0.000000,700.000000) scale(0.100000,-0.100000)"
fill="#000000" stroke="none">
<path d="M2206 4704 c-234 -36 -401 -111 -539 -243 -160 -151 -236 -361 -209
-583 19 -150 67 -251 167 -351 135 -136 282 -199 715 -312 363 -94 462 -135
544 -225 94 -104 66 -281 -57 -366 -96 -66 -206 -94 -370 -94 -317 0 -515 138
-550 386 l-11 74 -264 0 -265 0 6 -92 c23 -344 243 -611 592 -721 363 -114
797 -91 1095 58 185 93 316 243 376 430 36 109 44 288 20 399 -49 219 -236
411 -483 497 -32 11 -202 58 -379 104 -457 120 -543 154 -585 236 -25 51 -26
159 0 214 25 56 97 118 167 145 124 48 366 35 486 -25 114 -57 160 -128 193
-297 l5 -28 266 0 267 0 -7 80 c-19 215 -120 406 -278 525 -208 158 -590 238
-902 189z"/>
<path d="M4395 4011 c-254 -41 -450 -190 -570 -434 -149 -303 -153 -740 -10
-1032 139 -285 365 -427 674 -426 224 1 428 85 522 216 18 25 36 45 41 45 4 0
8 -191 8 -425 l0 -425 245 0 245 0 0 1220 0 1220 -235 0 -235 0 -1 -117 c0
-114 -1 -117 -17 -93 -9 14 -41 51 -71 83 -61 64 -171 125 -276 152 -71 19
-249 27 -320 16z m424 -406 c121 -66 196 -182 232 -360 17 -83 20 -123 16
-230 -9 -208 -54 -333 -157 -429 -83 -77 -123 -91 -270 -91 -116 0 -129 2
-181 28 -63 30 -146 112 -178 174 -59 117 -88 357 -61 520 32 203 137 353 283
405 41 14 75 18 157 15 95 -2 110 -5 159 -32z"/>
</g>
</svg>
